<svg width="42" height="63" viewBox="0 0 42 63" fill="none" xmlns="http://www.w3.org/2000/svg">
<path d="M19.6917 27.358C19.8121 27.1138 19.9984 26.9082 20.2296 26.7644C20.4607 26.6206 20.7276 26.5443 20.9998 26.5443C21.2721 26.5443 21.5389 26.6206 21.7701 26.7644C22.0013 26.9082 22.1876 27.1138 22.308 27.358L26.6611 36.178C26.7656 36.3903 26.9201 36.574 27.1114 36.7133C27.3027 36.8525 27.5251 36.9431 27.7592 36.9772L37.4936 38.3918C37.7626 38.4311 38.0153 38.5449 38.2232 38.7202C38.431 38.8956 38.5856 39.1255 38.6697 39.3841C38.7537 39.6427 38.7637 39.9197 38.6987 40.1837C38.6336 40.4477 38.4961 40.6883 38.3015 40.8783L31.2577 47.7441C31.0884 47.9091 30.9616 48.1127 30.8885 48.3376C30.8153 48.5624 30.7979 48.8017 30.8377 49.0347L32.5002 58.7297C32.546 58.9977 32.5159 59.2732 32.4134 59.525C32.3109 59.7768 32.1401 59.9949 31.9202 60.1548C31.7003 60.3146 31.44 60.4098 31.1689 60.4296C30.8977 60.4494 30.6265 60.393 30.3857 60.2668L21.6794 55.6905C21.4701 55.5804 21.2371 55.5229 21.0006 55.5229C20.764 55.5229 20.531 55.5804 20.3217 55.6905L11.6155 60.2668C11.3746 60.3938 11.1029 60.4509 10.8313 60.4315C10.5597 60.4121 10.2989 60.317 10.0785 60.157C9.85813 59.997 9.68694 59.7786 9.58433 59.5263C9.48173 59.274 9.45181 58.9981 9.49796 58.7297L11.1605 49.0347C11.2005 48.8018 11.1833 48.5626 11.1104 48.3378C11.0375 48.1129 10.911 47.9092 10.7419 47.7441L3.69816 40.8783C3.50318 40.6883 3.36523 40.4477 3.29993 40.1834C3.23462 39.9192 3.24456 39.642 3.32863 39.3831C3.41269 39.1242 3.56752 38.8941 3.77561 38.7186C3.98369 38.5432 4.23673 38.4295 4.50608 38.3903L14.2405 36.9758C14.4744 36.9418 14.6967 36.8514 14.888 36.7124C15.0793 36.5735 15.2339 36.3901 15.3386 36.178L19.6917 27.358ZM38.4998 2.83325H3.49983V17.4166L20.9998 24.7083L38.4998 17.4166V2.83325Z" stroke="#DE9811" stroke-width="4.6" stroke-linecap="round" stroke-linejoin="round"/>
</svg>
