<svg width="80" height="80" viewBox="0 0 80 80" fill="none" xmlns="http://www.w3.org/2000/svg">
<path d="M16.6667 60V72.5533L21.7167 69.5233L37.5901 60H53.3334C57.0101 60 60.0001 57.01 60.0001 53.3333V26.6667C60.0001 22.99 57.0101 20 53.3334 20H13.3334C9.65675 20 6.66675 22.99 6.66675 26.6667V53.3333C6.66675 57.01 9.65675 60 13.3334 60H16.6667ZM13.3334 26.6667H53.3334V53.3333H35.7434L23.3334 60.78V53.3333H13.3334V26.6667Z" fill="#DE9811"/>
<path d="M66.6667 6.66675H26.6667C22.99 6.66675 20 9.65675 20 13.3334H60C63.6767 13.3334 66.6667 16.3234 66.6667 20.0001V46.6667C70.3433 46.6667 73.3333 43.6767 73.3333 40.0001V13.3334C73.3333 9.65675 70.3433 6.66675 66.6667 6.66675Z" fill="#DE9811"/>
</svg>
