<svg width="80" height="46" viewBox="0 0 80 46" fill="none" xmlns="http://www.w3.org/2000/svg">
<path d="M23.3333 43V39.6667C23.3333 35.2464 25.0892 31.0072 28.2148 27.8816C31.3404 24.7559 35.5796 23 39.9999 23M39.9999 23C44.4202 23 48.6594 24.7559 51.785 27.8816C54.9106 31.0072 56.6666 35.2464 56.6666 39.6667V43M39.9999 23C42.6521 23 45.1956 21.9464 47.071 20.0711C48.9463 18.1957 49.9999 15.6522 49.9999 13C49.9999 10.3478 48.9463 7.8043 47.071 5.92893C45.1956 4.05357 42.6521 3 39.9999 3C37.3478 3 34.8042 4.05357 32.9288 5.92893C31.0535 7.8043 29.9999 10.3478 29.9999 13C29.9999 15.6522 31.0535 18.1957 32.9288 20.0711C34.8042 21.9464 37.3478 23 39.9999 23ZM3.33325 43V39.6667C3.33325 37.0145 4.38682 34.471 6.26218 32.5956C8.13755 30.7202 10.6811 29.6667 13.3333 29.6667M13.3333 29.6667C15.1014 29.6667 16.7971 28.9643 18.0473 27.714C19.2975 26.4638 19.9999 24.7681 19.9999 23C19.9999 21.2319 19.2975 19.5362 18.0473 18.286C16.7971 17.0357 15.1014 16.3333 13.3333 16.3333C11.5651 16.3333 9.86945 17.0357 8.61921 18.286C7.36896 19.5362 6.66658 21.2319 6.66658 23C6.66658 24.7681 7.36896 26.4638 8.61921 27.714C9.86945 28.9643 11.5651 29.6667 13.3333 29.6667ZM76.6666 43V39.6667C76.6666 37.0145 75.613 34.471 73.7376 32.5956C71.8623 30.7202 69.3187 29.6667 66.6666 29.6667M66.6666 29.6667C68.4347 29.6667 70.1304 28.9643 71.3806 27.714C72.6309 26.4638 73.3332 24.7681 73.3332 23C73.3332 21.2319 72.6309 19.5362 71.3806 18.286C70.1304 17.0357 68.4347 16.3333 66.6666 16.3333C64.8985 16.3333 63.2028 17.0357 61.9525 18.286C60.7023 19.5362 59.9999 21.2319 59.9999 23C59.9999 24.7681 60.7023 26.4638 61.9525 27.714C63.2028 28.9643 64.8985 29.6667 66.6666 29.6667Z" stroke="#DE9811" stroke-width="6" stroke-linecap="round" stroke-linejoin="round"/>
</svg>
